<svg xmlns="http://www.w3.org/2000/svg" viewBox="0 0 900 900">
  <defs>
    <radialGradient id="sea" cx="45%" cy="42%" r="65%">
      <stop offset="0%" stop-color="#1d5b93"/>
      <stop offset="65%" stop-color="#113e72"/>
      <stop offset="100%" stop-color="#0b2b55"/>
    </radialGradient>
    <linearGradient id="land" x1="0" x2="1" y1="0" y2="1">
      <stop offset="0" stop-color="#d0c08b"/>
      <stop offset=".35" stop-color="#746d4b"/>
      <stop offset=".68" stop-color="#334730"/>
      <stop offset="1" stop-color="#bfa36c"/>
    </linearGradient>
    <filter id="shadow" x="-20%" y="-20%" width="140%" height="140%">
      <feDropShadow dx="0" dy="18" stdDeviation="15" flood-color="#000" flood-opacity=".55"/>
    </filter>
    <filter id="coast">
      <feGaussianBlur stdDeviation="5"/>
    </filter>
  </defs>
  <rect width="900" height="900" fill="url(#sea)"/>
  <path d="M436 58c64 24 84 88 133 123 44 31 107 16 139 60 32 44 2 92 25 140 23 49 79 76 75 134-3 49-48 79-69 123-25 51-11 119-58 154-46 35-104 3-157 19-52 16-92 77-148 66-61-12-69-88-111-127-38-36-108-44-129-94-21-50 29-98 28-151-1-54-56-102-35-152 22-53 94-56 129-99 36-44 28-118 78-151 29-19 66-21 100-45Z" fill="#d9c287" opacity=".75" filter="url(#coast)"/>
  <path d="M436 58c64 24 84 88 133 123 44 31 107 16 139 60 32 44 2 92 25 140 23 49 79 76 75 134-3 49-48 79-69 123-25 51-11 119-58 154-46 35-104 3-157 19-52 16-92 77-148 66-61-12-69-88-111-127-38-36-108-44-129-94-21-50 29-98 28-151-1-54-56-102-35-152 22-53 94-56 129-99 36-44 28-118 78-151 29-19 66-21 100-45Z" fill="url(#land)" filter="url(#shadow)"/>
  <path d="M292 360c72 31 164 42 240 7 63-28 113-23 173 15" fill="none" stroke="#2b2118" stroke-opacity=".55" stroke-width="13"/>
  <path d="M242 628c88-50 180-66 279-51 66 10 108-4 165-36" fill="none" stroke="#1a1d18" stroke-opacity=".45" stroke-width="14"/>
  <path d="M371 112c-6 112-8 222 48 313 48 78 54 164 9 269" fill="none" stroke="#2f3329" stroke-opacity=".55" stroke-width="16"/>
  <path d="M198 520c66 2 143-11 195-54 50-42 114-58 180-42 46 11 99-1 154-42" fill="none" stroke="#e9d68d" stroke-opacity=".55" stroke-width="8"/>
  <path d="M302 728c46-36 104-52 173-48 56 3 97-17 144-57" fill="none" stroke="#e9d68d" stroke-opacity=".45" stroke-width="7"/>
  <g fill="#121417" opacity=".75">
    <rect x="378" y="585" width="95" height="70" rx="4"/>
    <rect x="492" y="542" width="75" height="54" rx="4"/>
    <rect x="458" y="375" width="105" height="62" rx="4"/>
    <rect x="317" y="675" width="88" height="50" rx="4"/>
    <rect x="510" y="210" width="70" height="42" rx="4"/>
  </g>
  <g fill="#fff" opacity=".72" font-family="Arial, sans-serif" font-weight="700" font-size="18">
    <text x="365" y="575">LOS SANTOS</text>
    <text x="526" y="452">SANDY</text>
    <text x="535" y="196">PALETO</text>
    <text x="300" y="755">AÉROPORT</text>
  </g>
  <circle cx="450" cy="450" r="350" fill="none" stroke="#fff" stroke-opacity=".08" stroke-width="2"/>
</svg>
